<?xml version="1.0" standalone="no"?>
<!DOCTYPE svg PUBLIC "-//W3C//DTD SVG 20010904//EN"
 "http://www.w3.org/TR/2001/REC-SVG-20010904/DTD/svg10.dtd">
<svg version="1.0" xmlns="http://www.w3.org/2000/svg"
 width="1024.000000pt" height="1024.000000pt" viewBox="0 0 1024.000000 1024.000000"
 preserveAspectRatio="xMidYMid meet">

<g transform="translate(0.000000,1024.000000) scale(0.100000,-0.100000)"
fill="#000000" stroke="none">
<path d="M5508 7448 c-384 -407 -699 -758 -691 -772 4 -6 23 -36 43 -66 20
-30 39 -60 43 -66 4 -7 -10 -23 -34 -38 l-40 -27 -53 48 c-28 26 -131 120
-227 208 -206 190 -281 255 -292 255 -4 0 -57 -50 -117 -110 -60 -61 -111
-106 -114 -101 -3 5 -9 41 -12 80 -5 48 -11 71 -20 71 -21 0 -293 -74 -598
-164 l-289 -85 -74 -73 -73 -72 0 -237 0 -236 -73 -6 c-90 -8 -229 -47 -322
-91 l-71 -33 4 116 c11 305 -101 540 -335 708 -116 83 -278 143 -451 167 -148
21 -418 21 -537 1 -279 -48 -654 -184 -894 -325 -93 -54 -137 -94 -218 -198
l-65 -83 4 -62 c5 -56 17 -84 135 -307 213 -401 236 -445 240 -450 2 -2 37 13
79 33 41 20 77 37 79 37 3 0 5 -9 5 -19 0 -20 102 -293 310 -831 67 -173 150
-389 185 -480 100 -259 184 -473 188 -476 2 -2 161 49 353 113 339 112 350
117 399 162 28 25 65 59 84 74 40 33 40 25 -21 310 -22 104 -38 191 -35 193 2
2 15 -13 29 -34 76 -114 223 -223 365 -270 108 -35 279 -37 401 -4 102 27 244
93 336 156 38 25 70 45 71 44 1 -2 -2 -52 -7 -112 -4 -60 -6 -111 -4 -113 3
-4 365 47 584 82 91 15 94 16 188 87 l95 71 -6 39 c-8 45 4 248 14 248 4 0
119 -61 256 -136 358 -195 792 -428 847 -455 l47 -22 94 70 c108 82 107 79
107 248 0 55 3 150 7 212 l6 111 61 22 c34 12 100 42 148 66 l88 44 15 -36
c48 -115 187 -271 321 -360 162 -107 299 -137 418 -88 17 7 18 4 12 -39 -4
-26 -4 -47 1 -47 4 0 118 -14 253 -31 135 -16 294 -34 354 -40 l108 -9 84 62
c85 63 102 87 89 127 -8 26 -5 26 61 -4 170 -78 368 -85 497 -18 16 8 31 13
33 10 2 -2 -15 -46 -40 -98 l-43 -95 326 -82 c179 -45 333 -82 341 -82 9 0 57
27 107 59 66 43 98 70 115 100 13 22 25 41 28 41 3 0 29 -76 59 -168 30 -92
57 -170 61 -175 5 -6 535 51 763 82 72 10 61 3 273 168 14 10 13 16 -4 55 -32
68 -137 297 -227 493 -184 400 -205 446 -205 454 0 9 16 34 298 461 257 388
304 462 299 467 -6 6 -802 183 -823 183 -9 0 -48 -25 -85 -55 l-69 -55 -41 82
c-23 46 -42 84 -43 85 -2 2 -552 114 -661 134 -155 29 -152 29 -245 -52 l-80
-72 0 -86 0 -87 -112 -12 c-156 -17 -259 -45 -352 -98 -43 -24 -82 -44 -85
-44 -4 0 -6 15 -4 33 4 43 33 702 33 748 l0 37 -267 1 c-148 1 -311 4 -364 7
l-95 7 -81 -72 c-45 -40 -84 -79 -87 -87 -3 -9 -6 -47 -6 -85 l0 -68 -27 4
c-182 31 -399 65 -418 65 -26 0 -181 -135 -179 -156 1 -8 -2 -11 -7 -8 -5 3
-9 -9 -9 -26 0 -39 -7 -37 -95 25 -66 47 -169 95 -205 95 -23 0 -27 15 -5 24
20 7 235 158 313 219 35 27 62 55 60 61 -3 12 -437 666 -442 666 -2 0 -64 -64
-138 -142z m137 -210 c16 -24 62 -87 102 -142 41 -54 73 -99 71 -101 -7 -6
-232 -117 -387 -190 l-164 -78 -18 24 c-10 13 -19 29 -19 35 0 6 28 47 62 90
103 132 321 404 323 404 1 0 15 -19 30 -42z m-3937 -504 c170 -34 343 -124
433 -224 96 -105 180 -305 179 -424 -1 -71 -27 -189 -59 -271 -53 -133 -106
-212 -215 -320 -88 -88 -155 -143 -343 -283 -39 -29 -44 -38 -39 -60 3 -15 28
-112 55 -217 48 -180 142 -573 155 -642 l5 -32 -87 -26 c-48 -15 -118 -37
-157 -50 -110 -36 -131 -39 -138 -18 -3 10 -62 171 -132 358 -316 850 -476
1287 -505 1388 -13 42 -26 77 -30 77 -3 0 -55 -14 -115 -30 -86 -25 -110 -28
-117 -18 -5 7 -60 116 -123 243 -91 181 -112 232 -103 241 34 32 265 141 411
195 106 39 246 74 397 100 243 40 373 44 528 13z m5627 -86 c-3 -51 -13 -169
-21 -263 -7 -93 -23 -287 -34 -430 -11 -143 -27 -330 -35 -415 -19 -201 -33
-420 -41 -649 l-7 -184 -136 7 c-75 4 -152 9 -171 12 l-35 6 4 114 3 115 -66
-36 c-118 -66 -207 -78 -339 -49 -138 31 -244 101 -322 213 -27 41 -75 159
-75 188 0 8 18 37 39 65 22 27 59 86 82 132 l43 83 -36 54 c-19 30 -49 81 -65
114 l-30 60 16 70 c55 231 270 406 498 405 98 -1 178 -19 266 -59 38 -17 71
-31 73 -31 2 0 4 46 4 103 0 56 10 184 22 285 l22 182 173 0 174 0 -6 -92z
m-2830 -127 c72 -64 148 -131 169 -149 l39 -34 -39 -41 c-22 -22 -113 -118
-204 -211 -400 -413 -367 -376 -345 -389 27 -15 156 -73 230 -103 33 -13 103
-45 155 -72 89 -44 98 -51 142 -117 73 -108 161 -199 252 -260 71 -47 98 -58
177 -76 52 -11 111 -23 132 -26 l37 -6 0 -193 c0 -127 -4 -194 -10 -194 -6 0
-97 49 -203 109 -106 59 -336 187 -512 284 -327 179 -501 276 -567 316 -29 18
-39 20 -42 9 -2 -7 -14 -159 -26 -338 -12 -179 -23 -330 -25 -336 -3 -9 -283
-65 -322 -64 -10 0 -13 33 -13 130 0 124 2 135 34 218 67 175 98 376 76 507
-13 82 -47 171 -101 264 l-38 66 -11 175 c-17 274 -28 412 -34 418 -3 2 -41
-2 -83 -11 -58 -11 -80 -12 -85 -4 -4 7 -8 44 -8 83 l0 71 158 47 c186 57 360
101 368 94 3 -3 21 -122 40 -264 19 -143 37 -281 42 -309 l7 -50 119 200 c66
110 155 257 198 327 l79 127 42 -41 c23 -22 101 -93 172 -157z m1123 -67 c100
-25 187 -71 238 -126 44 -47 94 -114 94 -125 0 -5 -133 -139 -295 -297 -162
-158 -295 -293 -295 -298 0 -7 24 -9 68 -6 73 6 157 42 318 139 45 27 84 49
88 49 3 0 22 -33 42 -72 20 -40 53 -100 74 -134 l37 -62 -38 -50 c-68 -88
-200 -170 -371 -227 -133 -44 -226 -56 -346 -45 -112 10 -175 30 -266 84 -181
108 -266 264 -266 491 0 109 21 195 76 313 73 158 212 280 397 349 148 56 271
60 445 17z m862 -10 l85 -7 -90 -18 c-121 -24 -125 -24 -125 4 0 29 9 39 29
33 9 -3 54 -8 101 -12z m2120 -125 c58 -11 130 -24 160 -29 30 -5 78 -14 105
-20 l50 -11 69 -152 c38 -83 83 -195 101 -247 l32 -95 25 40 c109 173 221 337
233 341 8 3 88 -11 177 -31 221 -49 238 -54 238 -66 0 -5 -71 -112 -157 -237
-270 -392 -353 -516 -353 -533 0 -9 16 -48 35 -89 20 -40 71 -149 115 -244 43
-94 119 -259 169 -366 50 -106 88 -197 83 -201 -10 -11 -426 -71 -463 -67
l-32 3 -28 125 c-29 135 -129 543 -133 547 -1 2 -31 -39 -66 -90 -36 -50 -68
-96 -72 -102 -27 -35 -134 -185 -187 -262 -35 -51 -67 -93 -71 -93 -4 0 -78
20 -164 45 -87 25 -159 45 -162 45 -2 0 -4 4 -4 9 0 17 211 343 260 403 28 33
65 87 82 121 17 34 73 132 125 218 l94 156 -70 154 c-39 84 -71 161 -71 171 0
20 -77 194 -143 325 -41 81 -54 93 -104 93 -19 0 -22 7 -28 58 -3 31 -8 70
-10 86 -5 28 -4 28 28 22 17 -4 79 -16 137 -27z m-5357 -245 c3 -19 1 -24 -10
-20 -8 3 -44 6 -80 6 -78 0 -76 8 4 25 81 18 80 18 86 -11z m4900 -40 c95 -24
221 -90 266 -139 40 -44 81 -113 81 -137 -1 -15 -126 -115 -411 -329 -113 -85
-218 -164 -235 -176 l-29 -22 24 -19 c38 -30 118 -55 160 -49 57 7 158 56 229
109 35 27 66 48 70 48 4 0 18 -17 32 -37 14 -20 53 -72 88 -116 73 -91 73 -83
-19 -176 -91 -91 -186 -146 -307 -180 -301 -83 -576 22 -691 265 -46 96 -55
139 -55 279 0 147 16 230 64 331 116 241 479 414 733 348z m-5020 -179 c134
-35 239 -110 288 -207 127 -252 59 -561 -175 -794 -57 -57 -91 -80 -176 -122
-151 -74 -212 -87 -348 -73 -62 6 -132 19 -161 31 -199 78 -310 236 -319 455
-9 215 67 383 234 515 133 106 245 159 399 190 112 23 185 24 258 5z m1307
-60 c0 -17 11 -30 40 -46 22 -13 40 -26 40 -30 0 -7 -116 54 -129 67 -7 7 31
44 40 38 5 -3 9 -16 9 -29z"/>
<path d="M1525 6183 c-39 -8 -105 -35 -105 -42 0 -5 13 -26 28 -47 26 -35 48
-91 66 -164 4 -14 29 -114 56 -222 28 -109 50 -206 50 -218 0 -26 4 -25 43 4
18 13 61 38 96 57 86 45 164 118 196 183 65 132 12 314 -113 395 -71 45 -231
73 -317 54z m235 -371 c0 -7 -4 -10 -10 -7 -5 3 -10 16 -10 28 0 18 2 19 10 7
5 -8 10 -21 10 -28z"/>
<path d="M6631 5879 c-56 -11 -94 -46 -133 -127 -93 -189 -4 -411 166 -412
146 -1 259 186 226 371 -29 157 -96 200 -259 168z m39 -274 c4 -51 0 -65 -15
-65 -33 0 -45 61 -19 99 19 27 31 16 34 -34z"/>
<path d="M5305 6201 c-96 -24 -167 -92 -223 -210 -33 -67 -37 -85 -36 -152 0
-60 6 -87 25 -125 13 -27 31 -50 40 -52 13 -2 165 127 426 362 35 31 34 49 -8
108 -39 54 -149 88 -224 69z"/>
<path d="M7854 5793 c-56 -25 -75 -40 -112 -95 -43 -62 -62 -119 -62 -181 0
-49 18 -127 29 -127 3 0 51 37 106 81 154 125 320 249 335 249 23 0 -7 25 -65
54 -74 36 -172 44 -231 19z"/>
<path d="M2890 5716 c-138 -29 -236 -140 -257 -291 -12 -94 57 -219 148 -265
92 -47 287 0 378 92 71 71 101 196 70 287 l-11 32 -23 -21 c-13 -13 -27 -40
-31 -63 -10 -59 -59 -107 -110 -107 -56 0 -139 42 -164 82 -41 67 -14 167 63
233 37 32 39 35 16 34 -13 0 -49 -6 -79 -13z"/>
</g>
</svg>
